<?xml version="1.0" encoding="UTF-8" standalone="no"?><!DOCTYPE svg PUBLIC "-//W3C//DTD SVG 1.1//EN" "http://www.w3.org/Graphics/SVG/1.1/DTD/svg11.dtd"><svg width="100%" height="100%" viewBox="0 0 355 355" version="1.1" xmlns="http://www.w3.org/2000/svg" xmlns:xlink="http://www.w3.org/1999/xlink" xml:space="preserve" xmlns:serif="http://www.serif.com/" style="fill-rule:evenodd;clip-rule:evenodd;stroke-linejoin:round;stroke-miterlimit:2;"><g><path d="M174.605,5.238c93.941,-0 170.21,75.977 170.21,169.56c-0,93.583 -76.269,169.56 -170.21,169.56c-93.942,0 -170.211,-75.977 -170.211,-169.56c0,-93.583 76.269,-169.56 170.211,-169.56Zm-27.288,95.474l64.126,0c15.648,0 29.549,3.028 41.704,9.082c12.154,6.054 21.585,14.613 28.291,25.678c6.706,11.064 10.059,23.834 10.059,38.308c-0,14.474 -3.353,27.244 -10.059,38.308c-6.706,11.065 -16.137,19.624 -28.291,25.678c-12.155,6.054 -26.056,9.081 -41.704,9.081l-64.126,0l-0,-146.135Zm-49.919,0l30.788,0l-0,146.135l-30.788,0l-0,-146.135Zm112.788,123.171c10.757,0 20.223,-2.053 28.396,-6.158c8.173,-4.106 14.46,-9.951 18.861,-17.537c4.4,-7.585 6.601,-16.387 6.601,-26.408c-0,-10.021 -2.201,-18.824 -6.601,-26.409c-4.401,-7.585 -10.688,-13.43 -18.861,-17.536c-8.173,-4.106 -17.639,-6.159 -28.396,-6.159l-35.626,0l-0,100.207l35.626,0Zm-97.394,-163.888c8.496,0 15.394,6.872 15.394,15.336c-0,8.463 -6.898,15.335 -15.394,15.335c-8.496,-0 -15.394,-6.872 -15.394,-15.335c-0,-8.464 6.898,-15.336 15.394,-15.336Z"/></g></svg>