<?xml version="1.0" encoding="UTF-8" standalone="no"?><!DOCTYPE svg PUBLIC "-//W3C//DTD SVG 1.1//EN" "http://www.w3.org/Graphics/SVG/1.1/DTD/svg11.dtd"><svg width="100%" height="100%" viewBox="0 0 355 355" version="1.1" xmlns="http://www.w3.org/2000/svg" xmlns:xlink="http://www.w3.org/1999/xlink" xml:space="preserve" xmlns:serif="http://www.serif.com/" style="fill-rule:evenodd;clip-rule:evenodd;stroke-linecap:round;stroke-linejoin:round;stroke-miterlimit:1.5;"><path d="M237.276,81.862c-9.48,-0 -16.992,-6.695 -16.992,-16.175l-1.108,-48.188l-153.675,-0c-9.48,-0 -17.176,7.696 -17.176,17.176l-0,278.548c-0,9.48 7.696,17.176 17.176,17.176l212.029,0c9.48,0 17.176,-7.696 17.176,-17.176l0,-231.361l-57.43,-0Z" style="stroke:#000;stroke-width:12.5px;"/><path d="M219.176,17.499l75.53,64.363" style="fill:none;stroke:#000;stroke-width:12.5px;"/><path d="M97.036,228.69l150.256,-0" style="fill:none;stroke:#ebebeb;stroke-width:25px;"/><path d="M97.036,280.692l150.256,-0" style="fill:none;stroke:#ebebeb;stroke-width:25px;"/><path d="M102.757,177.165c0,0 0,-38.41 33.655,-38.41c32.159,0 34.037,38.41 34.037,38.41" style="fill:none;stroke:#ebebeb;stroke-width:25px;"/><circle cx="136.935" cy="86.249" r="23.424" style="fill:none;stroke:#ebebeb;stroke-width:25px;"/></svg>