<?xml version="1.0" encoding="UTF-8" standalone="no"?><!DOCTYPE svg PUBLIC "-//W3C//DTD SVG 1.1//EN" "http://www.w3.org/Graphics/SVG/1.1/DTD/svg11.dtd"><svg width="100%" height="100%" viewBox="0 0 355 355" version="1.1" xmlns="http://www.w3.org/2000/svg" xmlns:xlink="http://www.w3.org/1999/xlink" xml:space="preserve" xmlns:serif="http://www.serif.com/" style="fill-rule:evenodd;clip-rule:evenodd;stroke-linecap:round;stroke-linejoin:round;stroke-miterlimit:1.5;"><path d="M237.276,81.862c-9.48,-0 -16.992,-6.695 -16.992,-16.175l-1.108,-48.188l-153.675,-0c-9.48,-0 -17.176,7.696 -17.176,17.176l-0,278.548c-0,9.48 7.696,17.176 17.176,17.176l212.029,0c9.48,0 17.176,-7.696 17.176,-17.176l0,-231.361l-57.43,-0Zm-140.24,211.33l150.256,-0c6.899,-0 12.5,-5.601 12.5,-12.5c0,-6.899 -5.601,-12.5 -12.5,-12.5l-150.256,-0c-6.899,-0 -12.5,5.601 -12.5,12.5c-0,6.899 5.601,12.5 12.5,12.5Zm-0,-52.002l150.256,-0c6.899,-0 12.5,-5.601 12.5,-12.5c0,-6.899 -5.601,-12.5 -12.5,-12.5l-150.256,-0c-6.899,-0 -12.5,5.601 -12.5,12.5c-0,6.899 5.601,12.5 12.5,12.5Zm18.221,-64.025c0,0 -0.889,-25.91 21.155,-25.91c9.888,0 14.994,6.094 17.754,11.999c3.398,7.267 3.798,14.522 3.798,14.522c0.337,6.891 6.205,12.211 13.095,11.874c6.891,-0.337 12.212,-6.204 11.875,-13.095l-6.12,-23.889c-6.219,-13.3 -18.13,-26.411 -40.402,-26.411c-45.286,0 -46.155,50.91 -46.155,50.91c0,6.899 5.601,12.5 12.5,12.5c6.899,0 12.5,-5.601 12.5,-12.5Zm21.678,-126.84c-19.827,0 -35.924,16.097 -35.924,35.924c0,19.827 16.097,35.923 35.924,35.923c19.827,0 35.924,-16.096 35.924,-35.923c-0,-19.827 -16.097,-35.924 -35.924,-35.924Zm-0,25c6.029,0 10.924,4.895 10.924,10.924c-0,6.029 -4.895,10.923 -10.924,10.923c-6.029,0 -10.924,-4.894 -10.924,-10.923c0,-6.029 4.895,-10.924 10.924,-10.924Z" style="stroke:#000;stroke-width:6.25px;"/></svg>