<svg xmlns="http://www.w3.org/2000/svg" viewBox="0 0 512 512"><!--! Font Awesome Free 6.5.1 by @fontawesome - https://fontawesome.com License - https://fontawesome.com/license/free (Icons: CC BY 4.0, Fonts: SIL OFL 1.1, Code: MIT License) Copyright 2023 Fonticons, Inc. --><path d="M233.4 406.1L386.1 253.4 258.6 125.9 105.9 278.6C84.6 299.9 80.1 331.3 94.7 355.8L49 446.6C35.8 472.5 51.6 504 80 504C105.9 504 137.5 488.2 163.4 474L254.2 428.3C278.7 442.9 310.1 438.4 331.4 417.1zM487 153.1L372.1 38.1C358.8 24.8 339.1 16 318.4 16S278 24.8 264.7 38.1L233.4 69.4 362.6 198.6 393.9 167.3C407.2 153.9 416 134.3 416 113.6S407.2 73.3 393.9 59.9z"/></svg>
